<svg xmlns="http://www.w3.org/2000/svg" width="2791" height="1331" viewBox="0 0 2791 1331">
  <metadata><?xpacket begin="﻿" id="W5M0MpCehiHzreSzNTczkc9d"?>
<x:xmpmeta xmlns:x="adobe:ns:meta/" x:xmptk="Adobe XMP Core 5.6-c140 79.160451, 2017/05/06-01:08:21        ">
   <rdf:RDF xmlns:rdf="http://www.w3.org/1999/02/22-rdf-syntax-ns#">
      <rdf:Description rdf:about=""/>
   </rdf:RDF>
</x:xmpmeta>
                                                                                                    
                                                                                                    
                                                                                                    
                                                                                                    
                                                                                                    
                                                                                                    
                                                                                                    
                                                                                                    
                                                                                                    
                                                                                                    
                                                                                                    
                                                                                                    
                                                                                                    
                                                                                                    
                                                                                                    
                                                                                                    
                                                                                                    
                                                                                                    
                                                                                                    
                                                                                                    
                           
<?xpacket end="w"?></metadata>
<defs>
    <style>
      .cls-1 {
        fill: #3c5f6e;
      }

      .cls-1, .cls-2 {
        fill-rule: evenodd;
      }

      .cls-2 {
        fill: #fbc8cf;
      }
    </style>
  </defs>
  <path class="cls-1" d="M2035,421s10.43-124.985,113-118c2.47,0.168,127.07-12.74,130,152,0.26,14.577-11.12,115.227-214,54C2061.53,508.255,2028.9,467.116,2035,421Z"/>
  <path class="cls-2" d="M2103,931s-124.07-506.464,56-524c1.85-.18,52,19,52,19s-87.96,124.859,44,509C2260.38,950.676,2103,931,2103,931Z"/>
  <path class="cls-1" d="M471,228L336,280s-64.877,20.467-95,41-75.412,30.382-88,188-27,445-27,445l127,5s-49.4-195.023-29-286,23.775-130.109,159-221c3.689-2.479,107-50,107-50Z"/>
  <path class="cls-2" d="M182,749s155.244-51.329,250-58c7.933-.558-2-112-2-112S286.406,590.171,170,686C164.333,690.665,182,749,182,749Z"/>
  <path class="cls-1" d="M1964,208l-135,52s-64.88,20.467-95,41-75.41,30.382-88,188-27,445-27,445l127,5s-49.4-195.023-29-286,23.78-130.109,159-221c3.69-2.479,107-50,107-50Z"/>
  <path class="cls-2" d="M1672,752s155.24-51.329,250-58c7.93-.558-2-112-2-112s-143.59,11.171-260,107C1654.33,693.665,1672,752,1672,752Z"/>
  <path class="cls-2" d="M617,489S353.648,952.663,747,959c3.639,0.059,324.44,18.056,87-493-1.06-2.281-99,34-99,34s47.835,205.707-6,191c-0.891-.243-96.5,19.7-42-189C687.813,498.887,617,489,617,489Z"/>
  <path class="cls-1" d="M1031,824l-18-345,116-88s18.52,94.641,19,103-36.37-45.782-39,318C1108.92,822.811,1031,824,1031,824Z"/>
  <path class="cls-2" d="M1074,930s4.25-338.04,39-426c2-5.073,169.47-228.019,310,95,2.83,6.5,41.38,118.418,60,338,0.5,5.947-139.94,24.055-166-17-4.42-6.964,3.3-252.476-43-225-18.24,10.824-52.32-4.628-27,240C1248.25,947.094,1171.33,958.909,1074,930Z"/>
  <path class="cls-1" d="M2653,418s-167.2,35.255-204,54c-4.23,2.156-111.67,39.318-107,219,0.16,6.272,6.41,221.019,168,235,5.97,0.516,123.46,22.133,188-14,1.67-.934-29-172-29-172s-114,41.809-114-61c0-7.746,2.22-86.7,95-57C2653.97,623.27,2653,418,2653,418Z"/>
  <path class="cls-1" d="M2444,440"/>
</svg>
